<svg width="100" height="100" viewBox="0 0 100 100" fill="none" xmlns="http://www.w3.org/2000/svg">
<rect width="100" height="100" fill="white"/>
<path fill-rule="evenodd" clip-rule="evenodd" d="M90.2624 66.3756H87.9249H86.7136C86.6033 65.7874 86.4325 65.3731 86.199 65.1398C85.8194 64.7604 85.1716 64.5647 84.2775 64.5647C83.3964 64.5647 82.7849 64.711 82.4429 65.0051C82.1851 65.2254 82.0502 65.531 82.0502 65.9105C82.0502 66.448 82.7979 66.8768 84.2775 67.2071C85.9672 67.5737 87.1788 67.8923 87.9249 68.1488C88.1207 68.2227 88.2916 68.2836 88.4147 68.3444C89.9205 69.0543 90.6667 70.1321 90.6667 71.5752C90.6667 73.3367 89.9321 74.6218 88.4756 75.4288C88.2916 75.5274 88.1207 75.6128 87.9249 75.6983C86.983 76.1025 85.8817 76.3097 84.6456 76.3097C82.7979 76.3097 81.3039 75.9794 80.1663 75.3303C79.4506 74.9145 78.9157 74.3915 78.5593 73.7613C78.2028 73.131 78.0245 72.3951 78.0245 71.5504H81.7446C81.7446 72.1866 81.9777 72.6891 82.4299 73.0312C82.8834 73.3861 83.6544 73.5701 84.7427 73.5701C85.5629 73.5701 86.1744 73.3977 86.5787 73.0558C86.8975 72.7864 87.0439 72.4921 87.0439 72.1504C87.0439 71.5752 86.3106 71.1232 84.8528 70.8045C82.6749 70.3394 81.304 69.9599 80.7416 69.6904C79.249 68.9936 78.5145 67.9173 78.5145 66.4235C78.5145 65.2254 78.894 64.2099 79.6767 63.3783C80.6563 62.338 82.1242 61.8238 84.0704 61.8238C85.6731 61.8238 86.9585 62.0571 87.9251 62.5091C88.0106 62.5453 88.0846 62.5829 88.1584 62.6322C88.8554 63.0103 89.3813 63.513 89.7336 64.1374C90.0856 64.7602 90.2624 65.5076 90.2624 66.3756Z" fill="black"/>
<path fill-rule="evenodd" clip-rule="evenodd" d="M88.3655 57.7138C88.3655 57.6399 88.3539 57.579 88.3163 57.5298C88.28 57.4689 88.2308 57.4311 88.1583 57.408C88.109 57.3948 88.035 57.3833 87.925 57.3702H87.7902H87.3627V58.0556H87.8149H87.925C88.0845 58.044 88.1945 58.0194 88.2554 57.9586C88.3293 57.8962 88.3655 57.8109 88.3655 57.7138ZM88.6597 57.3457C88.7336 57.4444 88.7698 57.5544 88.7698 57.6761C88.7698 57.8471 88.709 57.9949 88.5858 58.1167C88.4639 58.2398 88.3047 58.3137 88.109 58.3252C88.1945 58.3614 88.2554 58.3992 88.3047 58.447L88.6466 58.9006L88.916 59.3528H88.4755L88.267 58.9861C88.1337 58.7543 88.0234 58.5818 87.925 58.4963C87.9134 58.4847 87.9003 58.4717 87.8757 58.4601L87.583 58.3746H87.3626V59.3528H86.9945V57.053H87.7901C87.8393 57.053 87.8886 57.0646 87.9248 57.0646C88.1206 57.0646 88.2668 57.0892 88.3654 57.1255C88.4872 57.1631 88.5858 57.2356 88.6597 57.3457Z" fill="black"/>
<path fill-rule="evenodd" clip-rule="evenodd" d="M89.7001 58.1787C89.7001 57.8599 89.6261 57.5673 89.4669 57.2848C89.3073 57.0039 89.0872 56.7835 88.8059 56.6242C88.525 56.4777 88.2306 56.3922 87.9365 56.3922H87.9249C87.6307 56.3922 87.338 56.4777 87.0569 56.6242C86.7744 56.7835 86.554 57.0037 86.3948 57.2848C86.2368 57.5673 86.1512 57.8599 86.1512 58.1787C86.1512 58.4843 86.2368 58.777 86.3948 59.0595C86.5426 59.3276 86.7628 59.5492 87.0438 59.7071C87.3249 59.8666 87.6193 59.9403 87.9249 59.9403H87.9365C88.2437 59.9403 88.5364 59.8664 88.819 59.7071C89.1001 59.5492 89.3204 59.3276 89.4669 59.0595C89.6261 58.7768 89.7001 58.4843 89.7001 58.1787ZM90.0551 58.1787C90.0551 58.5336 89.9681 58.8885 89.7725 59.2304C89.5899 59.5723 89.332 59.8304 88.9901 60.0127C88.6467 60.2098 88.3047 60.2952 87.9365 60.2952H87.9249C87.5583 60.2952 87.215 60.2098 86.8728 60.0127C86.5294 59.8302 86.2729 59.5723 86.0888 59.2304C85.8932 58.8887 85.8079 58.5336 85.8079 58.1787C85.8079 57.7991 85.8934 57.4443 86.0888 57.1009C86.2845 56.759 86.5424 56.5026 86.8844 56.3186C87.2279 56.1346 87.5697 56.0492 87.9249 56.0377H87.9365C88.2915 56.0377 88.6349 56.1348 88.9769 56.3186C89.3204 56.5028 89.5899 56.759 89.7725 57.1009C89.9681 57.4441 90.0551 57.7989 90.0551 58.1787Z" fill="black"/>
<path fill-rule="evenodd" clip-rule="evenodd" d="M69.2371 40.891L79.2853 57.6281H69.2371H63.1436L53.5489 41.637L46.2802 29.5372L53.5489 25.1693L58.1253 22.4167L69.2371 40.891Z" fill="black"/>
<path fill-rule="evenodd" clip-rule="evenodd" d="M76.532 69.2498V76.1139H73.1903V75.3549C72.0642 76.0893 70.718 76.5181 69.2746 76.5181H69.237C65.2475 76.4935 62.0044 73.2382 62.0044 69.2498C62.0044 65.2616 65.2475 62.0078 69.237 61.983H69.2746C70.718 61.983 72.0642 62.412 73.1903 63.145V62.3497H76.532V69.2498ZM73.1903 70.009V68.4922C72.8353 66.6566 71.2079 65.2615 69.2746 65.2615H69.237C67.0473 65.2745 65.2722 67.0608 65.2722 69.2497C65.2722 71.4402 67.0473 73.2265 69.237 73.2511H69.2746C71.2079 73.2512 72.8353 71.8445 73.1903 70.009Z" fill="black"/>
<path fill-rule="evenodd" clip-rule="evenodd" d="M60.8423 69.2498V76.1139H57.502V75.3549C56.363 76.0893 55.0297 76.5181 53.5851 76.5181H53.5488C49.5594 76.4935 46.3163 73.2382 46.3163 69.2498C46.3163 65.2616 49.5594 62.0078 53.5488 61.983H53.5851C55.0298 61.983 56.363 62.412 57.502 63.145V57.6281H60.8423V69.2498ZM57.502 70.009V68.4922C57.147 66.6566 55.5182 65.2615 53.5851 65.2615H53.5488C51.3578 65.2745 49.584 67.0608 49.584 69.2497C49.584 71.4402 51.3578 73.2265 53.5488 73.2511H53.5851C55.5182 73.2512 57.147 71.8445 57.502 70.009Z" fill="black"/>
<path fill-rule="evenodd" clip-rule="evenodd" d="M53.5489 51.045L57.4891 57.6281H53.5489H41.3589L32.4019 42.7265L32.0106 42.0775L32.4019 41.8457L43.8688 34.9439L53.5489 51.045Z" fill="black"/>
<path d="M45.0063 61.9829H41.3719V76.1138H45.0063V61.9829Z" fill="black"/>
<path d="M45.0063 57.7006H41.3719V60.8936H45.0063V57.7006Z" fill="black"/>
<path fill-rule="evenodd" clip-rule="evenodd" d="M39.7069 69.2498V76.1139H36.3667V75.3549C35.2291 76.0893 33.8829 76.5181 32.4381 76.5181H32.4019C28.4124 76.4935 25.1693 73.2382 25.1693 69.2498C25.1693 65.2616 28.4124 62.0078 32.4019 61.983H32.4381C33.8829 61.983 35.2291 62.412 36.3667 63.145V57.6281H39.7069V69.2498ZM36.3667 70.009V68.4922C36.0116 66.6566 34.3843 65.2615 32.4381 65.2615H32.4019C30.2108 65.2745 28.4371 67.0608 28.4371 69.2497C28.4371 71.4402 30.2108 73.2265 32.4019 73.2511H32.4381C34.3843 73.2512 36.0116 71.8445 36.3667 70.009Z" fill="black"/>
<path fill-rule="evenodd" clip-rule="evenodd" d="M32.402 52.1215L35.706 57.6281H32.402H19.5642L17.7528 54.6059L29.611 47.4856L32.402 52.1215Z" fill="black"/>
<path fill-rule="evenodd" clip-rule="evenodd" d="M23.8594 69.2498V76.1139H20.5191V75.3549C19.3801 76.0893 18.0339 76.5181 16.5906 76.5181H16.5529C12.5765 76.4935 9.33337 73.2382 9.33337 69.2498C9.33337 65.2616 12.5765 62.0078 16.5529 61.983H16.5906C18.0339 61.983 19.3801 62.412 20.5191 63.145V62.3497H23.8594V69.2498ZM20.5191 70.009V68.4922C20.1641 66.6566 18.5367 65.2615 16.5906 65.2615H16.5529C14.3749 65.2745 12.6011 67.0608 12.6011 69.2497C12.6011 71.4402 14.3749 73.2265 16.5529 73.2511H16.5906C18.5367 73.2512 20.1641 71.8445 20.5191 70.009Z" fill="black"/>
</svg>
