<svg width="150" height="150" viewBox="0 0 150 150" fill="none" xmlns="http://www.w3.org/2000/svg">
<rect width="150" height="150" fill="white"/>
<path fill-rule="evenodd" clip-rule="evenodd" d="M135.394 99.5634H131.887H130.07C129.905 98.6811 129.649 98.0596 129.299 97.7097C128.729 97.1406 127.757 96.847 126.416 96.847C125.095 96.847 124.177 97.0665 123.664 97.5076C123.278 97.8381 123.075 98.2965 123.075 98.8658C123.075 99.672 124.197 100.315 126.416 100.811C128.951 101.361 130.768 101.838 131.887 102.223C132.181 102.334 132.437 102.425 132.622 102.517C134.881 103.581 136 105.198 136 107.363C136 110.005 134.898 111.933 132.713 113.143C132.437 113.291 132.181 113.419 131.887 113.547C130.475 114.154 128.823 114.465 126.968 114.465C124.197 114.465 121.956 113.969 120.25 112.995C119.176 112.372 118.374 111.587 117.839 110.642C117.304 109.697 117.037 108.593 117.037 107.326H122.617C122.617 108.28 122.967 109.034 123.645 109.547C124.325 110.079 125.482 110.355 127.114 110.355C128.344 110.355 129.262 110.097 129.868 109.584C130.346 109.18 130.566 108.738 130.566 108.226C130.566 107.363 129.466 106.685 127.279 106.207C124.012 105.509 121.956 104.94 121.113 104.536C118.874 103.49 117.772 101.876 117.772 99.6353C117.772 97.8381 118.341 96.3148 119.515 95.0674C120.984 93.5069 123.186 92.7357 126.106 92.7357C128.51 92.7357 130.438 93.0856 131.888 93.7636C132.016 93.8179 132.127 93.8744 132.238 93.9483C133.283 94.5155 134.072 95.2695 134.6 96.2062C135.128 97.1404 135.394 98.2615 135.394 99.5634Z" fill="black"/>
<path fill-rule="evenodd" clip-rule="evenodd" d="M132.548 86.5707C132.548 86.4598 132.531 86.3685 132.474 86.2946C132.42 86.2033 132.346 86.1466 132.237 86.112C132.163 86.0923 132.052 86.0749 131.887 86.0553H131.685H131.044V87.0835H131.722H131.887C132.127 87.0661 132.292 87.0291 132.383 86.9378C132.494 86.8444 132.548 86.7163 132.548 86.5707ZM132.989 86.0186C133.1 86.1666 133.155 86.3316 133.155 86.5142C133.155 86.7707 133.063 86.9924 132.879 87.175C132.696 87.3597 132.457 87.4706 132.163 87.4878C132.292 87.5421 132.383 87.5988 132.457 87.6706L132.97 88.3509L133.374 89.0291H132.713L132.4 88.4792C132.2 88.1314 132.035 87.8727 131.887 87.7445C131.87 87.7271 131.85 87.7075 131.814 87.6901L131.374 87.5619H131.044V89.0291H130.492V85.5795H131.685C131.759 85.5795 131.833 85.5969 131.887 85.5969C132.181 85.5969 132.4 85.6338 132.548 85.6882C132.731 85.7447 132.879 85.8534 132.989 86.0186Z" fill="black"/>
<path fill-rule="evenodd" clip-rule="evenodd" d="M134.55 87.268C134.55 86.7899 134.439 86.3509 134.2 85.9272C133.961 85.5058 133.631 85.1753 133.209 84.9362C132.787 84.7165 132.346 84.5883 131.905 84.5883H131.887C131.446 84.5883 131.007 84.7165 130.585 84.9362C130.162 85.1753 129.831 85.5056 129.592 85.9272C129.355 86.3509 129.227 86.7899 129.227 87.268C129.227 87.7265 129.355 88.1655 129.592 88.5892C129.814 88.9915 130.144 89.3237 130.566 89.5606C130.987 89.7999 131.429 89.9105 131.887 89.9105H131.905C132.366 89.9105 132.805 89.7996 133.228 89.5606C133.65 89.3237 133.981 88.9915 134.2 88.5892C134.439 88.1653 134.55 87.7265 134.55 87.268ZM135.083 87.268C135.083 87.8004 134.952 88.3328 134.659 88.8456C134.385 89.3585 133.998 89.7455 133.485 90.0191C132.97 90.3147 132.457 90.4429 131.905 90.4429H131.887C131.337 90.4429 130.822 90.3147 130.309 90.0191C129.794 89.7453 129.409 89.3585 129.133 88.8456C128.84 88.333 128.712 87.8004 128.712 87.268C128.712 86.6986 128.84 86.1664 129.133 85.6514C129.427 85.1386 129.814 84.7539 130.327 84.4779C130.842 84.202 131.355 84.0737 131.887 84.0566H131.905C132.437 84.0566 132.952 84.2022 133.465 84.4779C133.981 84.7541 134.385 85.1386 134.659 85.6514C134.952 86.1662 135.083 86.6984 135.083 87.268Z" fill="black"/>
<path fill-rule="evenodd" clip-rule="evenodd" d="M103.856 61.3364L118.928 86.4422H103.856H94.7153L80.3233 62.4556L69.4202 44.3059L80.3233 37.754L87.1878 33.6251L103.856 61.3364Z" fill="black"/>
<path fill-rule="evenodd" clip-rule="evenodd" d="M114.798 103.875V114.171H109.785V113.032C108.096 114.134 106.077 114.777 103.912 114.777H103.855C97.8713 114.74 93.0066 109.857 93.0066 103.875C93.0066 97.8925 97.8713 93.0117 103.855 92.9745H103.912C106.077 92.9745 108.096 93.618 109.785 94.7176V93.5245H114.798V103.875ZM109.785 105.013V102.738C109.253 99.9849 106.812 97.8922 103.912 97.8922H103.855C100.571 97.9118 97.9082 100.591 97.9082 103.875C97.9082 107.16 100.571 109.84 103.855 109.877H103.912C106.812 109.877 109.253 107.767 109.785 105.013Z" fill="black"/>
<path fill-rule="evenodd" clip-rule="evenodd" d="M91.2635 103.875V114.171H86.2531V113.032C84.5446 114.134 82.5446 114.777 80.3777 114.777H80.3233C74.3392 114.74 69.4745 109.857 69.4745 103.875C69.4745 97.8925 74.3392 93.0117 80.3233 92.9745H80.3777C82.5448 92.9745 84.5446 93.618 86.2531 94.7176V86.4422H91.2635V103.875ZM86.2531 105.013V102.738C85.7206 99.9849 83.2774 97.8922 80.3777 97.8922H80.3233C77.0367 97.9118 74.3761 100.591 74.3761 103.875C74.3761 107.16 77.0367 109.84 80.3233 109.877H80.3777C83.2774 109.877 85.7206 107.767 86.2531 105.013Z" fill="black"/>
<path fill-rule="evenodd" clip-rule="evenodd" d="M80.3233 76.5674L86.2335 86.4422H80.3233H62.0383L48.6028 64.0897L48.0159 63.1162L48.6028 62.7685L65.8031 52.4159L80.3233 76.5674Z" fill="black"/>
<path d="M67.5095 92.9743H62.0579V114.171H67.5095V92.9743Z" fill="black"/>
<path d="M67.5095 86.5509H62.0579V91.3404H67.5095V86.5509Z" fill="black"/>
<path fill-rule="evenodd" clip-rule="evenodd" d="M59.5604 103.875V114.171H54.5501V113.032C52.8437 114.134 50.8244 114.777 48.6572 114.777H48.6029C42.6187 114.74 37.754 109.857 37.754 103.875C37.754 97.8925 42.6187 93.0117 48.6029 92.9745H48.6572C50.8244 92.9745 52.8437 93.618 54.5501 94.7176V86.4422H59.5604V103.875ZM54.5501 105.013V102.738C54.0175 99.9849 51.5765 97.8922 48.6572 97.8922H48.6029C45.3163 97.9118 42.6557 100.591 42.6557 103.875C42.6557 107.16 45.3163 109.84 48.6029 109.877H48.6572C51.5765 109.877 54.0175 107.767 54.5501 105.013Z" fill="black"/>
<path fill-rule="evenodd" clip-rule="evenodd" d="M48.6029 78.1823L53.5589 86.4422H48.6029H29.3463L26.6292 81.9089L44.4164 71.2284L48.6029 78.1823Z" fill="black"/>
<path fill-rule="evenodd" clip-rule="evenodd" d="M35.789 103.875V114.171H30.7786V113.032C29.0701 114.134 27.0508 114.777 24.8858 114.777H24.8293C18.8647 114.74 14 109.857 14 103.875C14 97.8925 18.8647 93.0117 24.8293 92.9745H24.8858C27.0508 92.9745 29.0701 93.618 30.7786 94.7176V93.5245H35.789V103.875ZM30.7786 105.013V102.738C30.2461 99.9849 27.805 97.8922 24.8858 97.8922H24.8293C21.5622 97.9118 18.9017 100.591 18.9017 103.875C18.9017 107.16 21.5622 109.84 24.8293 109.877H24.8858C27.805 109.877 30.2461 107.767 30.7786 105.013Z" fill="black"/>
</svg>
