<svg width="150" height="150" viewBox="0 0 150 150" fill="none" xmlns="http://www.w3.org/2000/svg">
<rect width="150" height="150" fill="white"/>
<path d="M74.4128 44.4992L78.4136 56.8285H91.4011L80.8899 64.4675L84.8907 76.7968L74.3769 69.1578L63.8631 76.7968L67.864 64.4675L57.3502 56.8285H70.3377L74.4128 44.4992ZM98.6073 61.9229C98.6073 75.2726 87.7661 86.1109 74.4128 86.1109C61.0595 86.1109 50.2182 75.2726 50.2182 61.9229C50.2182 48.5732 61.0595 37.7349 74.4128 37.7349C87.7661 37.7349 98.6073 48.5732 98.6073 61.9229ZM74.4128 33.6251C58.7674 33.6251 46.0715 46.3201 46.0715 61.9587C46.0715 77.5973 58.77 90.2923 74.4128 90.2923C90.0556 90.2923 102.754 77.5973 102.754 61.9587C102.718 46.2817 90.0581 33.6251 74.4128 33.6251Z" fill="black"/>
<path d="M140.519 102.149C140.811 102.113 141.028 101.967 141.028 101.604C141.028 101.205 140.811 101.021 140.338 101.021H139.573L139.609 103.021H139.9V102.149H140.228L140.773 103.021H141.1L140.519 102.149ZM139.9 101.896V101.277H140.299C140.517 101.277 140.737 101.313 140.737 101.568C140.737 101.896 140.481 101.896 140.228 101.896H139.9Z" fill="black"/>
<path d="M140.266 100.33C139.32 100.33 138.557 101.057 138.557 102.039C138.557 103.021 139.358 103.748 140.266 103.748C141.213 103.748 141.975 103.021 141.975 102.039C141.975 101.095 141.21 100.33 140.266 100.33ZM140.266 103.497C139.465 103.497 138.846 102.842 138.846 102.042C138.846 101.241 139.465 100.586 140.266 100.586C141.067 100.586 141.686 101.205 141.686 102.042C141.686 102.878 141.064 103.497 140.266 103.497Z" fill="black"/>
<path d="M119.453 99.4939V102.33H112.321V103.241V104.294V105.532H113.122H116.286H117.197C118.87 105.532 120.216 106.877 120.216 108.55V109.603V110.44V111.166C120.216 112.838 118.87 114.184 117.197 114.184H108.901V111.383H117.087V110.473V109.637V108.399H116.286H113.122H112.211C110.538 108.399 109.193 107.054 109.193 105.381V104.327V103.274V102.547C109.193 100.875 110.538 99.5297 112.211 99.5297H119.451V99.4939H119.453Z" fill="black"/>
<path d="M135.825 114.225H128.586C126.913 114.225 125.567 112.879 125.567 111.207V109.279V104.44V102.512C125.567 100.839 126.913 99.4939 128.586 99.4939H135.825V102.33H128.693V104.44V105.604H135.825V108.44H128.693V109.24V111.35H135.825V114.225Z" fill="black"/>
<path d="M86.9296 114.225H79.6902C78.0172 114.225 76.6716 112.879 76.6716 111.207V109.279V104.44V102.512C76.6716 100.839 78.0172 99.4939 79.6902 99.4939H86.9296V102.33H79.7976V104.44V105.604H86.9296V108.44H79.7976V109.24V111.35H86.9296V114.225Z" fill="black"/>
<path d="M45.3093 99.4939H46.8749H52.1855C53.8585 99.4939 55.2041 100.839 55.2041 102.512V114.26H52.0755V102.368H46.8723V114.263H43.7438V99.5323L45.3093 99.4939Z" fill="black"/>
<path d="M101.554 108.297C103.046 108.115 104.138 106.987 104.138 105.46V105.061V102.734V102.517C104.138 100.844 102.938 99.7522 101.263 99.7522H95.6246H94.0232H92.1302V113.938H95.4046V108.483H98.4974L101.045 113.938H104.537L101.554 108.297ZM100.864 102.913V105.059V105.931H95.4072V102.294H100.864V102.913Z" fill="black"/>
<path d="M62.336 99.4939L65.8279 111.752L69.5013 99.4939H73.0673L68.3015 114.225H63.39L58.8417 99.4939H62.336Z" fill="black"/>
<path d="M11 102.514C11 100.842 12.3456 99.4964 14.0186 99.4964H21.7696V102.333H14.1286V111.388H21.7696V114.225H14.0186C12.3456 114.225 11 112.879 11 111.207V102.514Z" fill="black"/>
<path d="M35.9568 99.7496H29.5539C27.8809 99.7496 26.2795 100.842 26.2795 102.514V111.243C26.2795 112.915 27.8809 113.971 29.5539 113.971H35.9927C37.6657 113.971 39.0496 112.918 39.0496 111.243V102.514C39.0138 100.839 37.6324 99.7496 35.9568 99.7496ZM35.7394 111.388H29.1907V102.294H35.7394V111.388Z" fill="black"/>
</svg>
