<svg width="100" height="100" viewBox="0 0 100 100" fill="none" xmlns="http://www.w3.org/2000/svg">
<rect width="100" height="100" fill="white"/>
<path d="M49.6085 29.6662L52.2758 37.8857H60.9341L53.9266 42.9784L56.5938 51.1979L49.5846 46.1052L42.5754 51.1979L45.2427 42.9784L38.2335 37.8857H46.8918L49.6085 29.6662ZM65.7382 41.2819C65.7382 50.1817 58.5107 57.4073 49.6085 57.4073C40.7063 57.4073 33.4788 50.1817 33.4788 41.2819C33.4788 32.3821 40.7063 25.1566 49.6085 25.1566C58.5107 25.1566 65.7382 32.3821 65.7382 41.2819ZM49.6085 22.4167C39.1783 22.4167 30.7144 30.8801 30.7144 41.3058C30.7144 51.7315 39.18 60.1949 49.6085 60.1949C60.037 60.1949 68.5027 51.7315 68.5027 41.3058C68.4788 30.8545 60.0387 22.4167 49.6085 22.4167Z" fill="black"/>
<path d="M93.6795 68.0993C93.8739 68.0755 94.0188 67.9783 94.0188 67.7361C94.0188 67.47 93.8739 67.3473 93.5584 67.3473H93.0485L93.0723 68.6809H93.2668V68.0993H93.485L93.8483 68.6809H94.0666L93.6795 68.0993ZM93.2668 67.9305V67.5178H93.5328C93.6778 67.5178 93.8244 67.5417 93.8244 67.7122C93.8244 67.9305 93.6539 67.9305 93.485 67.9305H93.2668Z" fill="black"/>
<path d="M93.5107 66.8868C92.8797 66.8868 92.3715 67.3711 92.3715 68.026C92.3715 68.6809 92.9052 69.1652 93.5107 69.1652C94.1417 69.1652 94.6499 68.6809 94.6499 68.026C94.6499 67.3967 94.14 66.8868 93.5107 66.8868ZM93.5107 68.9981C92.9769 68.9981 92.5642 68.5615 92.5642 68.0277C92.5642 67.4939 92.9769 67.0573 93.5107 67.0573C94.0445 67.0573 94.4572 67.47 94.4572 68.0277C94.4572 68.5854 94.0428 68.9981 93.5107 68.9981Z" fill="black"/>
<path d="M79.6355 66.3293V68.2201H74.8808V68.827V69.5295V70.3546H75.4146H77.5242H78.1313C79.2467 70.3546 80.1437 71.2514 80.1437 72.3665V73.0689V73.6264V74.1106C80.1437 75.2257 79.2467 76.1225 78.1313 76.1225H72.6007V74.2556H78.058V73.6486V73.0911V72.2659H77.5242H75.4146H74.8075C73.6922 72.2659 72.7951 71.3691 72.7951 70.2541V69.5516V68.8492V68.365C72.7951 67.2499 73.6922 66.3531 74.8075 66.3531H79.6338V66.3293H79.6355Z" fill="black"/>
<path d="M90.5501 76.1497H85.7238C84.6085 76.1497 83.7114 75.2529 83.7114 74.1379V72.8524V69.6266V68.3411C83.7114 67.2261 84.6085 66.3293 85.7238 66.3293H90.5501V68.2201H85.7954V69.6266V70.4024H90.5501V72.2932H85.7954V72.8268V74.2334H90.5501V76.1497Z" fill="black"/>
<path d="M57.953 76.1497H53.1268C52.0114 76.1497 51.1144 75.2529 51.1144 74.1379V72.8524V69.6266V68.3411C51.1144 67.2261 52.0114 66.3293 53.1268 66.3293H57.953V68.2201H53.1984V69.6266V70.4024H57.953V72.2932H53.1984V72.8268V74.2334H57.953V76.1497Z" fill="black"/>
<path d="M30.2062 66.3293H31.2499H34.7903C35.9056 66.3293 36.8027 67.2261 36.8027 68.3411V76.1736H34.717V68.2456H31.2482V76.1753H29.1625V66.3548L30.2062 66.3293Z" fill="black"/>
<path d="M67.7029 72.1977C68.6971 72.0766 69.4253 71.3248 69.4253 70.3069V70.0409V68.4894V68.3445C69.4253 67.2295 68.6255 66.5015 67.5085 66.5015H63.7497H62.6822H61.4202V75.9588H63.6031V72.3221H65.6649L67.3635 75.9588H69.6914L67.7029 72.1977ZM67.2424 68.6088V70.0392V70.6206H63.6048V68.1962H67.2424V68.6088Z" fill="black"/>
<path d="M41.5574 66.3293L43.8852 74.5011L46.3342 66.3293H48.7115L45.5344 76.1497H42.26L39.2278 66.3293H41.5574Z" fill="black"/>
<path d="M7.33337 68.3428C7.33337 67.2278 8.23042 66.331 9.34575 66.331H14.5131V68.2217H9.41908V74.259H14.5131V76.1497H9.34575C8.23042 76.1497 7.33337 75.2529 7.33337 74.1379V68.3428Z" fill="black"/>
<path d="M23.9712 66.4997H19.7026C18.5872 66.4997 17.5197 67.2278 17.5197 68.3428V74.1618C17.5197 75.2768 18.5872 75.9809 19.7026 75.9809H23.9951C25.1104 75.9809 26.033 75.2785 26.033 74.1618V68.3428C26.0091 67.226 25.0882 66.4997 23.9712 66.4997ZM23.8262 74.2589H19.4604V68.1962H23.8262V74.2589Z" fill="black"/>
</svg>
