<svg width="20" height="18" viewBox="0 0 20 18" fill="none" xmlns="http://www.w3.org/2000/svg">
<path d="M10.0022 4.26031C7.16453 4.26031 4.87563 6.26217 4.87563 8.74402C4.87563 11.2259 7.16453 13.2277 10.0022 13.2277C12.8399 13.2277 15.1288 11.2259 15.1288 8.74402C15.1288 6.26217 12.8399 4.26031 10.0022 4.26031ZM10.0022 11.659C8.16843 11.659 6.66927 10.3518 6.66927 8.74402C6.66927 7.13628 8.16397 5.82902 10.0022 5.82902C11.8405 5.82902 13.3352 7.13628 13.3352 8.74402C13.3352 10.3518 11.836 11.659 10.0022 11.659ZM16.5343 4.0769C16.5343 4.65834 15.9989 5.12271 15.3385 5.12271C14.6737 5.12271 14.1428 4.65444 14.1428 4.0769C14.1428 3.49936 14.6782 3.03109 15.3385 3.03109C15.9989 3.03109 16.5343 3.49936 16.5343 4.0769ZM19.9297 5.13832C19.8539 3.7374 19.488 2.49648 18.3146 1.47408C17.1456 0.451688 15.7267 0.131702 14.1249 0.0614608C12.4741 -0.0204869 7.52593 -0.0204869 5.87507 0.0614608C4.27775 0.127799 2.8589 0.447786 1.68544 1.47018C0.511991 2.49258 0.150586 3.7335 0.0702733 5.13442C-0.0234244 6.57826 -0.0234244 10.9059 0.0702733 12.3497C0.146124 13.7506 0.511991 14.9916 1.68544 16.014C2.8589 17.0364 4.27328 17.3563 5.87507 17.4266C7.52593 17.5085 12.4741 17.5085 14.1249 17.4266C15.7267 17.3602 17.1456 17.0403 18.3146 16.014C19.4835 14.9916 19.8494 13.7506 19.9297 12.3497C20.0234 10.9059 20.0234 6.58216 19.9297 5.13832ZM17.797 13.8989C17.449 14.6638 16.7752 15.253 15.8963 15.5613C14.58 16.0179 11.4568 15.9125 10.0022 15.9125C8.54769 15.9125 5.41997 16.014 4.1082 15.5613C3.23369 15.2569 2.55996 14.6677 2.20747 13.8989C1.68544 12.7478 1.80591 10.0162 1.80591 8.74402C1.80591 7.47188 1.68991 4.73639 2.20747 3.58912C2.55549 2.82427 3.22922 2.23503 4.1082 1.92675C5.42443 1.47018 8.54769 1.57554 10.0022 1.57554C11.4568 1.57554 14.5845 1.47408 15.8963 1.92675C16.7708 2.23113 17.4445 2.82037 17.797 3.58912C18.319 4.74029 18.1985 7.47188 18.1985 8.74402C18.1985 10.0162 18.319 12.7517 17.797 13.8989Z" fill="black"/>
</svg>
