<svg width="150" height="150" viewBox="0 0 150 150" fill="none" xmlns="http://www.w3.org/2000/svg">
<rect width="150" height="150" fill="white"/>
<path fill-rule="evenodd" clip-rule="evenodd" d="M107.832 91.6095C106.624 91.6095 105.696 92.0334 104.68 93.0811V91.8974H101.96V104.262H104.896V98.4397C104.896 96.8561 105.032 94.3288 107.192 94.3288C109.224 94.3288 109.448 96.6961 109.448 98.2157V104.262H112.384V97.6319C112.384 95.8884 112.248 95.0646 111.784 94.0809C111.104 92.6092 109.488 91.6095 107.832 91.6095ZM16.872 91.6095C15.656 91.6095 14.728 92.0334 13.712 93.0811V91.8974H11V104.262H13.936V98.4397C13.936 96.8561 14.072 94.3288 16.232 94.3288C18.264 94.3288 18.48 96.6961 18.48 98.2157V104.262H21.416V97.6319C21.416 95.8884 21.288 95.0646 20.824 94.0809C20.136 92.6092 18.528 91.6095 16.872 91.6095ZM83.424 104.254H86.36V87.7546H83.424V104.254ZM35.112 97.9278C35.112 94.4887 32.288 91.6095 28.888 91.6095C25.4 91.6095 22.552 94.5287 22.552 98.1278C22.552 101.695 25.384 104.558 28.912 104.558C31.496 104.558 33.944 102.767 34.672 100.335H31.448C30.808 101.367 29.968 101.831 28.824 101.831C27.368 101.831 26.064 100.831 25.648 99.3994H34.96C35.072 98.7036 35.112 98.3677 35.112 97.9278ZM139 97.9278C139 94.4887 136.176 91.6095 132.776 91.6095C129.288 91.6095 126.44 94.5287 126.44 98.1278C126.44 101.695 129.264 104.558 132.8 104.558C135.384 104.558 137.832 102.767 138.56 100.335H135.336C134.696 101.367 133.856 101.831 132.712 101.831C131.256 101.831 129.952 100.831 129.528 99.3994H138.848C138.96 98.7036 139 98.3677 139 97.9278ZM119.712 94.3288C121.056 94.3288 121.832 94.7767 122.56 96.0243H125.872C124.968 93.369 122.648 91.6095 119.824 91.6095C116.248 91.6095 113.376 94.4887 113.376 98.0398C113.376 101.607 116.264 104.558 119.824 104.558C121.632 104.558 123.416 103.75 124.632 102.391C125.248 101.695 125.472 101.295 125.872 100.199H122.56C121.872 101.271 120.992 101.831 119.888 101.831C117.832 101.831 116.312 100.223 116.312 98.0798C116.312 95.9124 117.768 94.3288 119.712 94.3288ZM75.232 101.783C73.192 101.783 71.528 100.111 71.528 98.0398C71.528 95.9683 73.192 94.2968 75.232 94.2968C77.28 94.2968 78.936 95.9683 78.936 98.0398C78.936 100.111 77.28 101.783 75.232 101.783ZM93.864 101.783C91.816 101.783 90.16 100.111 90.16 98.0398C90.16 95.9683 91.816 94.2968 93.864 94.2968C95.904 94.2968 97.568 95.9683 97.568 98.0398C97.568 100.111 95.904 101.783 93.864 101.783ZM61.656 101.783C59.608 101.783 57.952 100.111 57.952 98.0398C57.952 95.9683 59.608 94.2968 61.656 94.2968C63.696 94.2968 65.352 95.9683 65.352 98.0398C65.352 100.111 63.696 101.783 61.656 101.783ZM46.336 99.4474L44.256 91.8974H41.896L39.792 99.4474L37.304 91.8974H34.72L38.8 104.262H40.68L43.064 96.2483L45.384 104.262H47.36L51.272 91.8974H48.848L46.336 99.4474ZM25.56 97.064C25.976 95.3925 27.304 94.3208 28.936 94.3208C30.568 94.3208 31.848 95.3685 32.248 97.064H25.56ZM129.44 97.064C129.864 95.3925 131.184 94.3208 132.816 94.3208C134.456 94.3208 135.736 95.3685 136.128 97.064H129.44ZM78.52 92.2014V93.2091C77.592 92.2014 76.256 91.6255 74.816 91.6255C71.64 91.6255 68.928 94.3768 68.928 97.9438C68.928 101.319 71.328 104.342 74.88 104.342C76.448 104.342 77.64 103.974 78.768 102.679V104.262H81.456V92.2014H78.52ZM97.152 92.2014V93.2091C96.224 92.2014 94.88 91.6255 93.448 91.6255C90.272 91.6255 87.56 94.3768 87.56 97.9438C87.56 101.319 89.96 104.342 93.512 104.342C95.08 104.342 96.272 103.974 97.392 102.679V104.262H100.088V92.2014H97.152ZM62.064 91.6175C60.632 91.6175 59.288 92.1934 58.36 93.1931V87.7546H55.424V104.254H58.12V102.671C59.248 103.966 60.44 104.334 62.008 104.334C65.56 104.334 67.96 101.311 67.96 97.9358C67.96 94.3688 65.248 91.6175 62.064 91.6175ZM56.992 84.6274L42.28 85.1632H56.696L56.992 84.6274ZM106.864 44.7261H85.656L85.056 45.7978L95.672 46.3737C95.792 46.3737 95.792 46.5496 95.616 46.5496L84.44 46.9255L83.36 48.837L93.904 49.4608C94.04 49.4848 94.008 49.6768 93.88 49.6768L82.688 50.0527L81.64 51.8762L92.168 52.468C92.4 52.484 92.4 52.684 92.168 52.684L80.992 53.0839L79.928 54.9954L90.416 55.6032C90.648 55.6192 90.624 55.8351 90.416 55.8351L79.24 56.235L78.16 58.1225L88.664 58.7144C88.824 58.7304 88.84 58.9303 88.632 58.9303L56.424 60.018L86.984 61.7375C87.176 61.7375 87.16 61.9855 86.952 61.9855L54.688 63.1532L85.248 64.8647C85.392 64.8647 85.424 65.0966 85.216 65.0966L52.904 66.2803L83.464 67.9999C83.592 68.0159 83.712 68.2478 83.448 68.2638L51.184 69.4315L81.752 71.151C81.84 71.167 81.928 71.3989 81.712 71.3989L65.48 71.9828L65.528 73.4624L80 74.2782C80.104 74.2942 80.16 74.5101 79.96 74.5101L65.584 75.03L65.656 76.6855L78.208 77.3893C78.336 77.4053 78.392 77.6613 78.176 77.6613L65.72 78.1011L65.776 79.9167L76.48 80.5245C76.6 80.5405 76.64 80.7724 76.424 80.7724L65.832 81.1563L65.904 83.1558L74.744 83.6517C74.872 83.6677 74.872 83.8836 74.688 83.8836L65.936 84.2035L65.968 85.0673H94.52C102.088 85.0673 108.88 79.4848 110.152 75.046C111.432 70.6072 111.432 66.6002 105.344 64.6008C108.744 63.809 114.648 59.938 115.816 54.5795C116.88 49.7168 115.104 44.7421 106.864 44.7261ZM58.768 81.4922L44.016 82.0201L58.008 82.8039L58.768 81.4922ZM60.496 78.3491L45.76 78.8769L59.768 79.6607L60.496 78.3491ZM62.256 75.1979L47.504 75.7258L61.528 76.5176L62.256 75.1979ZM92.504 75.7978H83.736L88.688 66.9202H95.192C101.92 66.9202 98.664 75.7978 92.504 75.7978ZM64.016 72.0708L49.296 72.5986L63.272 73.3824L64.016 72.0708ZM103.856 56.7629C103.576 57.8346 101.456 60.5539 98.768 60.5539H92.256L96.432 53.1079H99.76C104 53.2518 104.144 55.6832 103.856 56.7629ZM76.808 56.283L58.024 56.9548L76.856 58.0185L76.808 56.283ZM76.68 53.1798L59.808 53.7717L76.736 54.7554L76.68 53.1798ZM76.568 50.1807L61.528 50.6845L76.632 51.5323L76.568 50.1807ZM76.464 47.1095L63.288 47.5574L76.512 48.3411L76.464 47.1095ZM76.376 44.6221H64.92L76.392 45.238L76.376 44.6221Z" fill="black"/>
</svg>
