<svg width="100" height="100" viewBox="0 0 100 100" fill="none" xmlns="http://www.w3.org/2000/svg">
<rect width="100" height="100" fill="white"/>
<path fill-rule="evenodd" clip-rule="evenodd" d="M71.888 61.073C71.0827 61.073 70.464 61.3556 69.7867 62.0541V61.265H67.9734V69.5081H69.9307V65.6265C69.9307 64.5707 70.0214 62.8859 71.4614 62.8859C72.816 62.8859 72.9654 64.4641 72.9654 65.4772V69.5081H74.9227V65.0879C74.9227 63.9256 74.832 63.3764 74.5227 62.7206C74.0694 61.7395 72.992 61.073 71.888 61.073ZM11.248 61.073C10.4374 61.073 9.81871 61.3556 9.14137 62.0541V61.265H7.33337V69.5081H9.29071V65.6265C9.29071 64.5707 9.38137 62.8859 10.8214 62.8859C12.176 62.8859 12.32 64.4641 12.32 65.4772V69.5081H14.2774V65.0879C14.2774 63.9256 14.192 63.3764 13.8827 62.7206C13.424 61.7395 12.352 61.073 11.248 61.073ZM55.616 69.5027H57.5734V58.503H55.616V69.5027ZM23.408 65.2852C23.408 62.9925 21.5254 61.073 19.2587 61.073C16.9334 61.073 15.0347 63.0192 15.0347 65.4185C15.0347 67.7965 16.9227 69.7054 19.2747 69.7054C20.9974 69.7054 22.6294 68.511 23.1147 66.8901H20.9654C20.5387 67.5779 19.9787 67.8872 19.216 67.8872C18.2454 67.8872 17.376 67.2207 17.0987 66.2663H23.3067C23.3814 65.8024 23.408 65.5785 23.408 65.2852ZM92.6667 65.2852C92.6667 62.9925 90.784 61.073 88.5174 61.073C86.192 61.073 84.2934 63.0192 84.2934 65.4185C84.2934 67.7965 86.176 69.7054 88.5334 69.7054C90.256 69.7054 91.888 68.511 92.3734 66.8901H90.224C89.7974 67.5779 89.2374 67.8872 88.4747 67.8872C87.504 67.8872 86.6347 67.2207 86.352 66.2663H92.5654C92.64 65.8024 92.6667 65.5785 92.6667 65.2852ZM79.808 62.8859C80.704 62.8859 81.2214 63.1844 81.7067 64.0162H83.9147C83.312 62.246 81.7654 61.073 79.8827 61.073C77.4987 61.073 75.584 62.9925 75.584 65.3599C75.584 67.7379 77.5094 69.7054 79.8827 69.7054C81.088 69.7054 82.2774 69.1668 83.088 68.2604C83.4987 67.7965 83.648 67.5299 83.9147 66.7995H81.7067C81.248 67.5139 80.6614 67.8872 79.9254 67.8872C78.5547 67.8872 77.5414 66.8155 77.5414 65.3865C77.5414 63.9416 78.512 62.8859 79.808 62.8859ZM50.1547 67.8552C48.7947 67.8552 47.6854 66.7408 47.6854 65.3599C47.6854 63.9789 48.7947 62.8645 50.1547 62.8645C51.52 62.8645 52.624 63.9789 52.624 65.3599C52.624 66.7408 51.52 67.8552 50.1547 67.8552ZM62.576 67.8552C61.2107 67.8552 60.1067 66.7408 60.1067 65.3599C60.1067 63.9789 61.2107 62.8645 62.576 62.8645C63.936 62.8645 65.0454 63.9789 65.0454 65.3599C65.0454 66.7408 63.936 67.8552 62.576 67.8552ZM41.104 67.8552C39.7387 67.8552 38.6347 66.7408 38.6347 65.3599C38.6347 63.9789 39.7387 62.8645 41.104 62.8645C42.464 62.8645 43.568 63.9789 43.568 65.3599C43.568 66.7408 42.464 67.8552 41.104 67.8552ZM30.8907 66.2983L29.504 61.265H27.9307L26.528 66.2983L24.8694 61.265H23.1467L25.8667 69.5081H27.12L28.7094 64.1655L30.256 69.5081H31.5734L34.1814 61.265H32.5654L30.8907 66.2983ZM17.04 64.7094C17.3174 63.595 18.2027 62.8805 19.2907 62.8805C20.3787 62.8805 21.232 63.579 21.4987 64.7094H17.04ZM86.2934 64.7094C86.576 63.595 87.456 62.8805 88.544 62.8805C89.6374 62.8805 90.4907 63.579 90.752 64.7094H86.2934ZM52.3467 61.4676V62.1394C51.728 61.4676 50.8374 61.0837 49.8774 61.0837C47.76 61.0837 45.952 62.9178 45.952 65.2959C45.952 67.5459 47.552 69.5614 49.92 69.5614C50.9654 69.5614 51.76 69.3161 52.512 68.4524V69.5081H54.304V61.4676H52.3467ZM64.768 61.4676V62.1394C64.1494 61.4676 63.2534 61.0837 62.2987 61.0837C60.1814 61.0837 58.3734 62.9178 58.3734 65.2959C58.3734 67.5459 59.9734 69.5614 62.3414 69.5614C63.3867 69.5614 64.1814 69.3161 64.928 68.4524V69.5081H66.7254V61.4676H64.768ZM41.376 61.0783C40.4214 61.0783 39.5254 61.4622 38.9067 62.1287V58.503H36.9494V69.5027H38.7467V68.447C39.4987 69.3108 40.2934 69.5561 41.3387 69.5561C43.7067 69.5561 45.3067 67.5406 45.3067 65.2905C45.3067 62.9125 43.4987 61.0783 41.376 61.0783ZM37.9947 56.4183L28.1867 56.7755H37.7974L37.9947 56.4183ZM71.2427 29.8174H57.104L56.704 30.5319L63.7814 30.9158C63.8614 30.9158 63.8614 31.0331 63.744 31.0331L56.2934 31.2837L55.5734 32.558L62.6027 32.9739C62.6934 32.9899 62.672 33.1179 62.5867 33.1179L55.1254 33.3685L54.4267 34.5841L61.4454 34.9787C61.6 34.9894 61.6 35.1227 61.4454 35.1227L53.9947 35.3892L53.2854 36.6636L60.2774 37.0688C60.432 37.0795 60.416 37.2234 60.2774 37.2234L52.8267 37.49L52.1067 38.7483L59.1094 39.1429C59.216 39.1536 59.2267 39.2869 59.088 39.2869L37.616 40.012L57.9894 41.1584C58.1174 41.1584 58.1067 41.3237 57.968 41.3237L36.4587 42.1021L56.832 43.2431C56.928 43.2431 56.9494 43.3978 56.8107 43.3978L35.2694 44.1869L55.6427 45.3332C55.728 45.3439 55.808 45.4985 55.632 45.5092L34.1227 46.2877L54.5014 47.434C54.56 47.4447 54.6187 47.5993 54.4747 47.5993L43.6534 47.9885L43.6854 48.9749L53.3334 49.5188C53.4027 49.5294 53.44 49.6734 53.3067 49.6734L43.7227 50.02L43.7707 51.1237L52.1387 51.5929C52.224 51.6036 52.2614 51.7742 52.1174 51.7742L43.8134 52.0674L43.8507 53.2778L50.9867 53.683C51.0667 53.6937 51.0934 53.8483 50.9494 53.8483L43.888 54.1042L43.936 55.4372L49.8294 55.7678C49.9147 55.7784 49.9147 55.9224 49.792 55.9224L43.9574 56.1357L43.9787 56.7115H63.0134C68.0587 56.7115 72.5867 52.9899 73.4347 50.0306C74.288 47.0714 74.288 44.4002 70.2294 43.0672C72.496 42.5393 76.432 39.9587 77.2107 36.3863C77.92 33.1445 76.736 29.8281 71.2427 29.8174ZM39.1787 54.3282L29.344 54.6801L38.672 55.2026L39.1787 54.3282ZM40.3307 52.2327L30.5067 52.5846L39.8454 53.1072L40.3307 52.2327ZM41.504 50.132L31.6694 50.4839L41.0187 51.0117L41.504 50.132ZM61.6694 50.5318H55.824L59.1254 44.6134H63.4614C67.9467 44.6134 65.776 50.5318 61.6694 50.5318ZM42.6774 48.0472L32.864 48.3991L42.1814 48.9216L42.6774 48.0472ZM69.2374 37.8419C69.0507 38.5564 67.6374 40.3692 65.8454 40.3692H61.504L64.288 35.4052H66.5067C69.3334 35.5012 69.4294 37.1221 69.2374 37.8419ZM51.2054 37.522L38.6827 37.9699L51.2374 38.679L51.2054 37.522ZM51.12 35.4532L39.872 35.8478L51.1574 36.5036L51.12 35.4532ZM51.0454 33.4538L41.0187 33.7897L51.088 34.3549L51.0454 33.4538ZM50.976 31.4063L42.192 31.7049L51.008 32.2274L50.976 31.4063ZM50.9174 29.7481H43.28L50.928 30.1587L50.9174 29.7481Z" fill="black"/>
</svg>
