<svg width="100" height="100" viewBox="0 0 100 100" fill="none" xmlns="http://www.w3.org/2000/svg">
<rect width="100" height="100" fill="white"/>
<path d="M76.4798 28.7997H76.6112C76.6992 28.7997 76.7612 28.7864 76.7978 28.757C76.8338 28.7277 76.8512 28.6904 76.8512 28.6457C76.8512 28.6004 76.8345 28.5637 76.8005 28.5351C76.7672 28.5018 76.7072 28.4884 76.6272 28.4884H76.4858V28.795L76.4798 28.7997ZM76.1765 28.2798H76.7218C76.8765 28.2798 76.9885 28.3111 77.0578 28.3731C77.1272 28.4364 77.1618 28.5198 77.1618 28.6244C77.1618 28.707 77.1352 28.7777 77.0818 28.8377C77.0298 28.8977 76.9465 28.9416 76.8332 28.9683C76.8798 28.9816 76.9132 29.0016 76.9365 29.0216C76.9672 29.0483 76.9998 29.0883 77.0332 29.1416L77.2318 29.4948H76.8718C76.7545 29.2616 76.6758 29.1236 76.6365 29.0783C76.5965 29.033 76.5565 29.0116 76.5165 29.0116C76.5072 29.0116 76.4952 29.0116 76.4792 29.015V29.4948H76.1725V28.2798H76.1765ZM77.6145 28.891C77.6145 28.6364 77.5245 28.4191 77.3452 28.2392C77.1652 28.0592 76.9485 27.9692 76.6938 27.9692C76.4405 27.9692 76.2272 28.0599 76.0472 28.2392C75.8672 28.4191 75.7805 28.6364 75.7805 28.891C75.7805 29.1443 75.8712 29.3622 76.0505 29.5422C76.2305 29.7221 76.4478 29.8121 76.7012 29.8121C76.9565 29.8121 77.1732 29.7221 77.3532 29.5422C77.5332 29.3622 77.6232 29.1449 77.6232 28.891H77.6145ZM77.8365 28.891C77.8365 29.0956 77.7858 29.2856 77.6832 29.4622C77.5818 29.6388 77.4432 29.7781 77.2665 29.8801C77.0898 29.9814 76.8998 30.032 76.6945 30.032C76.4912 30.032 76.3012 29.9814 76.1252 29.8801C75.9485 29.7781 75.8092 29.6388 75.7072 29.4622C75.6072 29.2856 75.5538 29.0956 75.5538 28.891C75.5538 28.6877 75.6072 28.4978 75.7072 28.3205C75.8138 28.1432 75.9538 28.0039 76.1272 27.9019C76.3072 27.7953 76.4938 27.7486 76.7005 27.7486C76.9058 27.7486 77.0965 27.7953 77.2738 27.9019C77.4498 28.0019 77.5892 28.1419 77.6912 28.3151C77.7932 28.4904 77.8445 28.6817 77.8445 28.8843L77.8365 28.891ZM21.4865 56.115H21.6198C21.7078 56.115 21.7698 56.1017 21.8065 56.0717C21.8418 56.0437 21.8598 56.0064 21.8598 55.9617C21.8598 55.9151 21.8425 55.8791 21.8085 55.8511C21.7732 55.8218 21.7152 55.8078 21.6318 55.8078H21.4872V56.1143L21.4865 56.115ZM21.1852 55.5951H21.7305C21.8852 55.5951 21.9972 55.6265 22.0665 55.6885C22.1352 55.7518 22.1698 55.8351 22.1698 55.9404C22.1698 56.0217 22.1432 56.0937 22.0912 56.1537C22.0378 56.2136 21.9545 56.2563 21.8412 56.2836C21.8878 56.3016 21.9225 56.321 21.9452 56.3403C21.9752 56.3683 22.0085 56.4103 22.0418 56.4642L22.2405 56.8175H21.8805C21.7672 56.5862 21.6872 56.4463 21.6472 56.4016C21.6072 56.3563 21.5672 56.333 21.5272 56.333C21.5205 56.333 21.5072 56.333 21.4938 56.3376V56.8175H21.1925V55.5951H21.1852ZM22.6232 56.2063C22.6232 55.9517 22.5325 55.7351 22.3532 55.5552C22.1732 55.3752 21.9565 55.2852 21.7025 55.2852C21.4492 55.2852 21.2318 55.3745 21.0518 55.5552C20.8718 55.7351 20.7825 55.9517 20.7825 56.2063C20.7825 56.4596 20.8718 56.6782 21.0518 56.8581C21.2318 57.0381 21.4485 57.1281 21.7025 57.1281C21.9558 57.1281 22.1732 57.0374 22.3532 56.8581C22.5332 56.6782 22.6232 56.4602 22.6232 56.2063ZM22.8452 56.2063C22.8452 56.4109 22.7945 56.6009 22.6918 56.7775C22.5905 56.9541 22.4505 57.0934 22.2738 57.1954C22.1005 57.302 21.9072 57.3487 21.7072 57.3487C21.5072 57.3487 21.3138 57.302 21.1405 57.1954C20.9645 57.0954 20.8245 56.9555 20.7225 56.7822C20.6212 56.6075 20.5692 56.4156 20.5692 56.213C20.5692 56.009 20.6212 55.8198 20.7225 55.6425C20.8245 55.4652 20.9645 55.3259 21.1412 55.2246C21.3185 55.1233 21.5078 55.0713 21.7118 55.0713C21.9158 55.0713 22.1052 55.1233 22.2825 55.2246C22.4598 55.3266 22.5998 55.4645 22.7025 55.6431C22.8025 55.8218 22.8545 56.0097 22.8545 56.2163L22.8452 56.2063ZM18.8345 50.8778H24.1692L28.0092 40.7971L27.5825 50.8778H33.2378L41.8798 27.7573H36.5998L32.6512 37.9712L33.2912 27.7573H27.5832L18.8345 50.8778ZM42.7345 27.7573L34.1445 50.8778H39.4792L48.1198 27.7573H42.7332H42.7345ZM55.3765 49.2782L63.1132 28.3691L54.8958 37.1174L55.3758 49.2775L55.3765 49.2782ZM18.0465 43.1165C18.0465 43.1165 15.8465 47.2767 15.8465 50.8771C15.8465 50.8771 15.6465 59.3615 24.4092 59.3615H25.6092C25.6092 59.3615 27.3692 59.9213 57.6972 50.8837H50.0158L49.6158 41.363L46.0145 50.8804H40.4932L49.2158 27.7593H54.4972L52.0972 34.3988L57.7772 27.7586H74.4225L72.9812 31.5989H67.2998L65.5398 36.479H70.8212L69.1412 40.7978H63.9398L61.8598 46.4776H68.1012L67.6212 48.1571C67.6212 48.1571 90.2665 42.3174 92.6665 41.6776C92.6665 41.6776 28.1265 72.2547 17.5632 72.2547C17.5632 72.2547 7.3645 72.3167 7.3645 63.9969C7.3645 63.9969 6.2045 56.2376 18.0472 43.1172L18.0465 43.1165Z" fill="black"/>
</svg>
