<svg width="150" height="150" viewBox="0 0 150 150" fill="none" xmlns="http://www.w3.org/2000/svg">
<rect width="150" height="150" fill="white"/>
<path d="M114.72 43.1995H114.917C115.049 43.1995 115.142 43.1795 115.197 43.1355C115.251 43.0916 115.277 43.0356 115.277 42.9686C115.277 42.9006 115.252 42.8456 115.201 42.8026C115.151 42.7527 115.061 42.7327 114.941 42.7327H114.729V43.1925L114.72 43.1995ZM114.265 42.4197H115.083C115.315 42.4197 115.483 42.4667 115.587 42.5597C115.691 42.6547 115.743 42.7796 115.743 42.9366C115.743 43.0606 115.703 43.1665 115.623 43.2565C115.545 43.3465 115.42 43.4125 115.25 43.4525C115.32 43.4725 115.37 43.5025 115.405 43.5324C115.451 43.5724 115.5 43.6324 115.55 43.7124L115.848 44.2423H115.308C115.132 43.8923 115.014 43.6854 114.955 43.6174C114.895 43.5494 114.835 43.5174 114.775 43.5174C114.761 43.5174 114.743 43.5174 114.719 43.5224V44.2423H114.259V42.4197H114.265ZM116.422 43.3365C116.422 42.9546 116.287 42.6287 116.018 42.3588C115.748 42.0888 115.423 41.9539 115.041 41.9539C114.661 41.9539 114.341 42.0898 114.071 42.3588C113.801 42.6287 113.671 42.9546 113.671 43.3365C113.671 43.7164 113.807 44.0433 114.076 44.3132C114.346 44.5832 114.672 44.7181 115.052 44.7181C115.435 44.7181 115.76 44.5832 116.03 44.3132C116.3 44.0433 116.435 43.7174 116.435 43.3365H116.422ZM116.755 43.3365C116.755 43.6434 116.679 43.9283 116.525 44.1933C116.373 44.4582 116.165 44.6671 115.9 44.8201C115.635 44.9721 115.35 45.048 115.042 45.048C114.737 45.048 114.452 44.9721 114.188 44.8201C113.923 44.6671 113.714 44.4582 113.561 44.1933C113.411 43.9283 113.331 43.6434 113.331 43.3365C113.331 43.0316 113.411 42.7467 113.561 42.4807C113.721 42.2148 113.931 42.0059 114.191 41.8529C114.461 41.6929 114.741 41.623 115.051 41.623C115.359 41.623 115.645 41.6929 115.911 41.8529C116.175 42.0029 116.384 42.2128 116.537 42.4727C116.69 42.7357 116.767 43.0226 116.767 43.3265L116.755 43.3365ZM32.2297 84.1725H32.4297C32.5617 84.1725 32.6547 84.1525 32.7097 84.1075C32.7627 84.0655 32.7897 84.0096 32.7897 83.9426C32.7897 83.8726 32.7637 83.8186 32.7127 83.7766C32.6597 83.7326 32.5727 83.7116 32.4477 83.7116H32.2307V84.1715L32.2297 84.1725ZM31.7777 83.3927H32.5957C32.8277 83.3927 32.9957 83.4397 33.0997 83.5327C33.2027 83.6277 33.2547 83.7526 33.2547 83.9106C33.2547 84.0326 33.2147 84.1405 33.1367 84.2305C33.0567 84.3205 32.9317 84.3845 32.7617 84.4254C32.8317 84.4524 32.8837 84.4814 32.9177 84.5104C32.9627 84.5524 33.0127 84.6154 33.0627 84.6964L33.3607 85.2262H32.8207C32.6507 84.8793 32.5307 84.6694 32.4707 84.6024C32.4107 84.5344 32.3507 84.4994 32.2907 84.4994C32.2807 84.4994 32.2607 84.4994 32.2407 84.5064V85.2262H31.7887V83.3927H31.7777ZM33.9347 84.3095C33.9347 83.9276 33.7987 83.6027 33.5297 83.3327C33.2597 83.0628 32.9347 82.9279 32.5537 82.9279C32.1737 82.9279 31.8477 83.0618 31.5777 83.3327C31.3077 83.6027 31.1737 83.9276 31.1737 84.3095C31.1737 84.6894 31.3077 85.0173 31.5777 85.2872C31.8477 85.5571 32.1727 85.6921 32.5537 85.6921C32.9337 85.6921 33.2597 85.5561 33.5297 85.2872C33.7997 85.0173 33.9347 84.6904 33.9347 84.3095ZM34.2677 84.3095C34.2677 84.6164 34.1917 84.9013 34.0377 85.1663C33.8857 85.4312 33.6757 85.6401 33.4107 85.7931C33.1507 85.953 32.8607 86.023 32.5607 86.023C32.2607 86.023 31.9707 85.953 31.7107 85.7931C31.4467 85.6431 31.2367 85.4332 31.0837 85.1733C30.9317 84.9113 30.8537 84.6234 30.8537 84.3195C30.8537 84.0136 30.9317 83.7296 31.0837 83.4637C31.2367 83.1978 31.4467 82.9888 31.7117 82.8369C31.9777 82.6849 32.2617 82.6069 32.5677 82.6069C32.8737 82.6069 33.1577 82.6849 33.4237 82.8369C33.6897 82.9898 33.8997 83.1968 34.0537 83.4647C34.2037 83.7326 34.2817 84.0146 34.2817 84.3245L34.2677 84.3095ZM28.2517 76.3166H36.2537L42.0137 61.1957L41.3737 76.3166H49.8567L62.8197 41.636H54.8997L48.9767 56.9568L49.9367 41.636H41.3747L28.2517 76.3166ZM64.1017 41.636L51.2167 76.3166H59.2187L72.1797 41.636H64.0997H64.1017ZM83.0647 73.9173L94.6697 42.5537L82.3437 55.6762L83.0637 73.9163L83.0647 73.9173ZM27.0697 64.6748C27.0697 64.6748 23.7697 70.9151 23.7697 76.3156C23.7697 76.3156 23.4697 89.0422 36.6137 89.0422H38.4137C38.4137 89.0422 41.0537 89.882 86.5457 76.3256H75.0237L74.4237 62.0445L69.0217 76.3206H60.7397L73.8237 41.639H81.7457L78.1457 51.5983L86.6657 41.638H111.634L109.472 47.3984H100.95L98.3097 54.7184H106.232L103.712 61.1967H95.9097L92.7897 69.7164H102.152L101.432 72.2357C101.432 72.2357 135.4 63.4761 139 62.5163C139 62.5163 42.1897 108.382 26.3447 108.382C26.3447 108.382 11.0467 108.475 11.0467 95.9953C11.0467 95.9953 9.30669 84.3565 27.0707 64.6758L27.0697 64.6748Z" fill="black"/>
</svg>
