<svg width="20" height="18" viewBox="0 0 20 18" fill="none" xmlns="http://www.w3.org/2000/svg">
<path d="M10.6033 0H14.5368C14.5368 0 14.3182 3.84212 20 4.11144V7.08091C20 7.08091 16.9682 7.22606 14.5368 5.81477L14.5793 11.9452C14.5793 13.0412 14.1519 14.1126 13.351 15.024C12.5501 15.9353 11.4117 16.6456 10.0798 17.0651C8.74796 17.4847 7.28237 17.5945 5.86837 17.3808C4.45438 17.1671 3.15548 16.6395 2.13591 15.8646C1.11634 15.0897 0.421886 14.1024 0.140353 13.0275C-0.14118 11.9525 0.00285125 10.8383 0.554236 9.8256C1.10562 8.81291 2.0396 7.94725 3.23807 7.33809C4.43655 6.72892 5.84571 6.40359 7.28737 6.40325H8.311V9.43917C7.64438 9.28113 6.92912 9.28717 6.26728 9.45643C5.60543 9.6257 5.03081 9.94955 4.62537 10.3818C4.21994 10.814 4.00441 11.3325 4.00952 11.8634C4.01464 12.3943 4.24015 12.9103 4.65387 13.338C5.06759 13.7657 5.6484 14.0831 6.31344 14.2449C6.97847 14.4068 7.69377 14.4049 8.35728 14.2394C9.02078 14.074 9.59862 13.7534 10.0083 13.3236C10.4181 12.8937 10.6387 12.3764 10.6389 11.8455L10.6033 0Z" fill="black"/>
</svg>
