<svg width="150" height="150" viewBox="0 0 150 150" fill="none" xmlns="http://www.w3.org/2000/svg">
<rect width="150" height="150" fill="white"/>
<path d="M137.203 52.0162C136.311 54.1565 138.059 57.5096 135.526 58.1517L56.7422 57.902L48.3928 58.0803L47.2154 59.8996L37.3674 97.2833L36.0115 97.8897L22.7025 97.64L21.4536 95.036C17.7428 79.8042 13.5681 64.7866 10 49.5548C13.4254 49.0911 17.386 48.8414 20.847 49.5905C24.4508 60.72 26.0922 72.5986 29.2321 84.1205L29.6603 84.4415L30.6237 83.3357L39.1157 50.0899L40.0791 49.3051L129.567 49.4478C132.065 50.2683 137.417 47.6642 137.203 52.0162Z" fill="black"/>
<path d="M137.31 66.3918C137.524 68.8888 135.134 71.1717 133.421 72.6343C130.174 71.2074 126.178 68.211 122.181 70.387C120.932 71.3144 120.076 72.991 120.968 74.3822C126.499 78.5201 136.347 76.2728 138.416 84.6199C139.451 88.2227 138.63 92.8243 135.776 95.3927C131.173 99.6732 124.501 100.601 118.078 98.7458C115.259 97.4973 112.119 96.6412 109.657 94.3939C110.585 91.8255 112.262 89.6496 114.01 87.7233C117.614 88.6151 120.718 91.5045 125.143 91.0051C126.606 90.9694 128.461 89.9706 129.175 88.4011C129.71 82.1586 121.717 84.5842 118.078 82.8006C114.331 81.9089 111.406 78.6984 110.656 75.1313C109.943 71.3858 110.977 67.8186 113.832 65.4286C120.469 60.8984 130.959 61.6118 137.31 66.3918Z" fill="black"/>
<path d="M106.874 64.5725C107.124 75.274 107.088 86.4035 106.803 97.0693C103.342 97.961 99.4524 97.1763 95.8129 97.1763C92.8514 92.2536 91.0673 87.545 87.6776 82.5866C87.2495 82.4083 87.0711 82.979 86.7499 83.086L86.4645 96.8552C84.1452 98.1037 80.8982 96.9622 78.2221 97.4616L77.6513 95.6424C77.7583 85.5474 77.3658 74.5249 78.1865 64.6439C81.1837 64.0018 84.5377 64.0018 87.8917 64.1445L88.8551 64.8222L96.3838 78.3417L97.4186 78.1277C97.1688 74.1325 98.0251 69.1028 97.8111 64.6795C100.344 63.5737 104.091 64.1801 106.874 64.5725Z" fill="black"/>
<path d="M60.9882 82.1229C60.7741 79.4832 59.668 76.9149 58.5619 74.5962C57.0633 76.6652 57.099 79.5902 56.4567 82.0515C57.7056 83.1574 59.6323 82.6223 60.9882 82.1229ZM68.9808 72.67L75.0109 97.0336C72.4418 97.9967 69.1235 97.2833 66.1977 97.3189C64.7347 95.2857 65.6624 91.4331 62.3441 91.0051C59.2398 91.1834 55.2436 89.9706 53.1384 92.4319L51.7111 97.4259C48.8923 97.7827 45.5383 97.8183 42.9336 97.1406C45.7524 86.1181 48.9994 75.2383 52.3891 64.3942C56.5638 63.5737 61.9516 63.8948 66.3047 64.3942L68.9808 72.67Z" fill="black"/>
<path d="M138.702 60.756C138.63 60.7203 138.523 60.7203 138.416 60.7203H138.309V61.2555H138.487C138.595 61.2555 138.702 61.2198 138.773 61.1841C138.844 61.1485 138.88 61.0414 138.88 60.9701C138.844 60.863 138.773 60.7917 138.702 60.756ZM137.81 62.2546V60.3992C137.917 60.3992 138.095 60.3992 138.309 60.3992C138.523 60.3992 138.666 60.3992 138.702 60.3992C138.844 60.3992 138.987 60.4348 139.058 60.5062C139.237 60.5776 139.308 60.756 139.308 60.9344C139.308 61.0771 139.272 61.2198 139.165 61.2555C139.094 61.3269 138.987 61.3626 138.844 61.3626C138.951 61.3982 139.058 61.4339 139.094 61.4696C139.201 61.5766 139.272 61.7194 139.272 61.8978V62.0762C139.272 62.1119 139.272 62.1119 139.272 62.1475V62.1832V62.2546H138.809C138.809 62.2189 138.773 62.1119 138.773 62.0048C138.773 61.8978 138.773 61.8264 138.737 61.7907C138.702 61.7194 138.666 61.6837 138.595 61.648C138.559 61.648 138.487 61.6123 138.416 61.6123H138.309H138.202V62.2546H137.81ZM137.56 60.3635C137.31 60.6133 137.167 60.9344 137.167 61.3269C137.167 61.7194 137.31 62.0405 137.56 62.2903C137.845 62.5757 138.131 62.6828 138.523 62.6828C138.916 62.6828 139.237 62.54 139.487 62.2903C139.736 62.0048 139.879 61.6837 139.879 61.3269C139.879 60.9344 139.736 60.6133 139.487 60.3635C139.201 60.078 138.88 59.9353 138.523 59.9353C138.166 59.9353 137.845 60.078 137.56 60.3635ZM139.701 62.5043C139.38 62.8255 138.987 62.9682 138.523 62.9682C138.059 62.9682 137.667 62.7898 137.346 62.5043C137.025 62.1832 136.882 61.7907 136.882 61.3269C136.882 60.8273 137.06 60.4348 137.417 60.1137C137.738 59.7926 138.131 59.6499 138.559 59.6499C139.023 59.6499 139.415 59.8283 139.736 60.1494C140.057 60.4705 140.236 60.863 140.236 61.3269C140.2 61.7907 140.022 62.1832 139.701 62.5043Z" fill="black"/>
</svg>
