<svg width="100" height="100" viewBox="0 0 100 100" fill="none" xmlns="http://www.w3.org/2000/svg">
<rect width="100" height="100" fill="white"/>
<path d="M91.4686 34.6774C90.8739 36.1043 92.0395 38.3397 90.3506 38.7678L37.8281 38.6013L32.2618 38.7202L31.4769 39.933L24.9115 64.8555L24.0076 65.2598L15.1349 65.0933L14.3024 63.3573C11.8285 53.2028 9.04536 43.191 6.66663 33.0366C8.95021 32.7274 11.5906 32.5609 13.898 33.0603C16.3005 40.48 17.3947 48.3991 19.488 56.0803L19.7735 56.2944L20.4157 55.5571L26.0771 33.3933L26.7194 32.8701L86.3781 32.9652C88.0432 33.5122 91.6114 31.7762 91.4686 34.6774Z" fill="black"/>
<path d="M91.5401 44.2612C91.6828 45.9258 90.089 47.4478 88.9473 48.4228C86.7826 47.4716 84.1184 45.474 81.4542 46.9246C80.6217 47.543 80.0508 48.6607 80.6455 49.5881C84.3325 52.3467 90.8978 50.8485 92.2775 56.4133C92.9673 58.8151 92.4202 61.8829 90.5172 63.5951C87.4486 66.4488 83.0004 67.0671 78.7187 65.8305C76.8395 64.9982 74.7462 64.4275 73.1049 62.9292C73.7233 61.217 74.8413 59.7664 76.0069 58.4822C78.4094 59.0767 80.4789 61.003 83.4286 60.6701C84.4039 60.6463 85.6408 59.9804 86.1166 58.934C86.4734 54.7724 81.145 56.3895 78.7187 55.2004C76.221 54.6059 74.2704 52.4656 73.7709 50.0875C73.2952 47.5905 73.985 45.2124 75.888 43.6191C80.3124 40.5989 87.3059 41.0745 91.5401 44.2612Z" fill="black"/>
<path d="M71.2493 43.0484C71.4158 50.1826 71.392 57.6023 71.2017 64.7128C68.8944 65.3074 66.3015 64.7842 63.8752 64.7842C61.9009 61.5024 60.7115 58.3633 58.4517 55.0577C58.1663 54.9388 58.0473 55.3193 57.8332 55.3907L57.6429 64.5701C56.0968 65.4025 53.9321 64.6415 52.1481 64.9744L51.7675 63.7616C51.8388 57.0316 51.5772 49.6833 52.1243 43.0959C54.1224 42.6679 56.3584 42.6679 58.5944 42.763L59.2367 43.2148L64.2558 52.2278L64.9457 52.0851C64.7792 49.4217 65.3501 46.0685 65.2073 43.1197C66.8962 42.3825 69.3939 42.7868 71.2493 43.0484Z" fill="black"/>
<path d="M40.6588 54.7486C40.5161 52.9888 39.7787 51.2766 39.0413 49.7308C38.0422 51.1101 38.066 53.0601 37.6379 54.701C38.4704 55.4382 39.7549 55.0815 40.6588 54.7486ZM45.9872 48.4466L50.0073 64.689C48.2946 65.3311 46.0824 64.8555 44.1318 64.8793C43.1565 63.5238 43.775 60.9554 41.5628 60.6701C39.4933 60.789 36.8291 59.9804 35.4256 61.6213L34.4741 64.9506C32.5949 65.1884 30.3589 65.2122 28.6224 64.7604C30.5016 57.4121 32.6663 50.1589 34.9261 42.9294C37.7092 42.3825 41.3011 42.5965 44.2032 42.9294L45.9872 48.4466Z" fill="black"/>
<path d="M92.4677 40.504C92.4201 40.4802 92.3487 40.4802 92.2774 40.4802H92.206V40.837H92.3249C92.3963 40.837 92.4677 40.8132 92.5152 40.7894C92.5628 40.7656 92.5866 40.6943 92.5866 40.6467C92.5628 40.5753 92.5152 40.5278 92.4677 40.504ZM91.873 41.5031V40.2661C91.9443 40.2661 92.0633 40.2661 92.206 40.2661C92.3487 40.2661 92.4439 40.2661 92.4677 40.2661C92.5628 40.2661 92.658 40.2899 92.7055 40.3375C92.8245 40.385 92.8721 40.504 92.8721 40.6229C92.8721 40.7181 92.8483 40.8132 92.7769 40.837C92.7293 40.8846 92.658 40.9084 92.5628 40.9084C92.6342 40.9322 92.7055 40.9559 92.7293 40.9797C92.8007 41.0511 92.8483 41.1462 92.8483 41.2652V41.3841C92.8483 41.4079 92.8483 41.4079 92.8483 41.4317V41.4555V41.5031H92.539C92.539 41.4793 92.5152 41.4079 92.5152 41.3365C92.5152 41.2652 92.5152 41.2176 92.4915 41.1938C92.4677 41.1462 92.4439 41.1225 92.3963 41.0987C92.3725 41.0987 92.3249 41.0749 92.2774 41.0749H92.206H92.1346V41.5031H91.873ZM91.7065 40.2423C91.54 40.4088 91.4448 40.6229 91.4448 40.8846C91.4448 41.1462 91.54 41.3603 91.7065 41.5268C91.8968 41.7171 92.0871 41.7885 92.3487 41.7885C92.6104 41.7885 92.8245 41.6934 92.991 41.5268C93.1575 41.3365 93.2527 41.1225 93.2527 40.8846C93.2527 40.6229 93.1575 40.4088 92.991 40.2423C92.8007 40.052 92.5866 39.9569 92.3487 39.9569C92.1109 39.9569 91.8968 40.052 91.7065 40.2423ZM93.1337 41.6696C92.9196 41.8837 92.658 41.9788 92.3487 41.9788C92.0395 41.9788 91.7778 41.8599 91.5637 41.6696C91.3497 41.4555 91.2545 41.1938 91.2545 40.8846C91.2545 40.5516 91.3735 40.2899 91.6113 40.0758C91.8254 39.8617 92.0871 39.7666 92.3725 39.7666C92.6818 39.7666 92.9434 39.8855 93.1575 40.0996C93.3716 40.3137 93.4905 40.5753 93.4905 40.8846C93.4667 41.1938 93.3478 41.4555 93.1337 41.6696Z" fill="black"/>
</svg>
